<?xml version="1.0" encoding="utf-8"?>
<!-- Generator: Adobe Illustrator 26.3.1, SVG Export Plug-In . SVG Version: 6.00 Build 0)  -->
<svg version="1.1" id="10" class="perso" xmlns="http://www.w3.org/2000/svg" xmlns:xlink="http://www.w3.org/1999/xlink" x="0px" y="0px"
	 viewBox="0 0 102 102" style="enable-background:new 0 0 102 102;" xml:space="preserve">
<style type="text/css">
	.st0{fill:#898989;}
	.st1{fill:#FFFFFF;stroke:#FFFFFF;stroke-width:3;stroke-miterlimit:10;}
	.st2{fill:#EDECEC;}
</style>
<circle class="st0" cx="51" cy="51" r="51"/>
<circle class="st1" cx="51" cy="51" r="42.6"/>
<ellipse class="st2" cx="51" cy="51" rx="41.2" ry="41.2"/>
<path class="st0" d="M64.5,34c-2.3,0-4.2,1.9-4.2,4.2V45c-0.8-0.7-1.7-1.1-2.8-1.1c-1.2,0-2.3,0.5-3.1,1.4c-0.6-1.6-2.1-2.8-4-2.8
	c-1.1,0-2.1,0.4-2.8,1.1v-11c0-2.3-1.9-4.2-4.2-4.2S39,30.3,39,32.6v15.5c0,0.4,0.3,0.7,0.7,0.7s0.7-0.3,0.7-0.7V32.6
	c0-1.6,1.3-2.8,2.8-2.8s2.8,1.3,2.8,2.8v18.1l-8.7,1.9c-2.4,0.5-4.1,2.6-4.1,5v5.9c0,1.6,0.7,3.1,2,4l4.2,3.3
	c2.4,1.9,5.5,2.9,8.6,2.9h7.3c7.3-0.1,13.2-5.9,13.2-13.2V38.3C68.7,35.9,66.8,34,64.5,34z M54.6,48.1c0-1.6,1.3-2.8,2.8-2.8
	s2.8,1.3,2.8,2.8v6.3c0,1.6-1.3,2.8-2.8,2.8s-2.8-1.3-2.8-2.8V48.1z M47.5,46.7c0-1.6,1.3-2.8,2.8-2.8s2.8,1.3,2.8,2.8v5.9
	c-0.9-1.5-2.6-2.4-4.4-2.4c-0.3,0-0.7,0-1.1,0.1l-0.2,0.1v-3.7H47.5z M67.3,60.5c0,6.5-5.3,11.8-11.8,11.8h-7.3
	c-2.8,0-5.5-0.9-7.7-2.6l-4.2-3.3c-0.9-0.7-1.4-1.8-1.4-2.9v-5.9c0-1.7,1.2-3.3,2.9-3.6L48,51.7c0.3-0.1,0.5-0.1,0.8-0.1
	c1.8,0,3.7,1.5,3.7,3.7c0,1.7-1.2,3.2-2.9,3.6l-6.8,1.5c-0.3,0.1-0.6,0.4-0.6,0.7c0,0.4,0.4,0.7,0.7,0.7H43l6.8-1.5
	c0.5-0.1,3.1-0.7,3.9-3.7c0.7,1.1,2.1,2.1,3.6,2.1c2.3,0,4.2-1.9,4.2-4.2V38.3c0-1.6,1.3-2.8,2.8-2.8c1.6,0,2.8,1.3,2.8,2.8v22.2
	H67.3z"/>
</svg>
