<?xml version="1.0" encoding="utf-8"?>
<!-- Generator: Adobe Illustrator 26.3.1, SVG Export Plug-In . SVG Version: 6.00 Build 0)  -->
<svg version="1.1" id="11" class="perso" xmlns="http://www.w3.org/2000/svg" xmlns:xlink="http://www.w3.org/1999/xlink" x="0px" y="0px"
	 viewBox="0 0 102 102" style="enable-background:new 0 0 102 102;" xml:space="preserve">
<style type="text/css">
	.st0{fill:#898989;}
	.st1{fill:#FFFFFF;stroke:#FFFFFF;stroke-width:3;stroke-miterlimit:10;}
	.st2{fill:#EDECEC;}
</style>
<circle class="st0" cx="51" cy="51" r="51"/>
<circle class="st1" cx="51" cy="51" r="42.6"/>
<ellipse class="st2" cx="51" cy="51" rx="41.2" ry="41.2"/>
<path class="st0" d="M51,28.4c-29.3,0-33.9,13.9-33.9,24.7c0,12.5,9.3,20.6,20.7,20.6c3.2,0,6-0.8,7.8-4.3l2.3-4.8
	c0.7-1.4,1.9-2.2,3.1-2.2c1.2,0,2.3,0.8,3.1,2.2l2.3,4.8c1.8,3.6,4.6,4.3,7.8,4.3c11.5,0,20.7-8.1,20.7-20.6
	C85,42.3,80.3,28.4,51,28.4z M64.2,71.8c-3.3,0-4.9-0.9-6.1-3.3l-2.4-4.8c-1-1.9-2.7-3.1-4.8-3.2c-1.9,0.1-3.7,1.3-4.7,3.2l-2.3,4.8
	c-1.2,2.4-2.8,3.3-6.1,3.3C26.9,71.8,19,63.9,19,53.1c0-15.4,10.4-22.8,32-22.8s32.1,7.5,32.1,22.8C83.1,63.9,75.1,71.8,64.2,71.8z
	 M35.9,43.5c-4.2,0-7.5,3.4-7.5,7.5s3.4,7.5,7.5,7.5s7.5-3.4,7.5-7.5S40.1,43.5,35.9,43.5z M35.9,56.7c-3.1,0-5.7-2.5-5.7-5.7
	c0-3.1,2.5-5.7,5.7-5.7s5.7,2.5,5.7,5.7C41.6,54.1,39.1,56.7,35.9,56.7z M66.1,43.5c-4.2,0-7.5,3.4-7.5,7.5s3.4,7.5,7.5,7.5
	s7.5-3.4,7.5-7.5S70.3,43.5,66.1,43.5z M66.1,56.7c-3.1,0-5.7-2.5-5.7-5.7c0-3.1,2.5-5.7,5.7-5.7c3.2,0,5.7,2.5,5.7,5.7
	C71.8,54.1,69.2,56.7,66.1,56.7z"/>
</svg>
