<?xml version="1.0" encoding="utf-8"?>
<!-- Generator: Adobe Illustrator 26.3.1, SVG Export Plug-In . SVG Version: 6.00 Build 0)  -->
<svg version="1.1" id="12" class="perso" xmlns="http://www.w3.org/2000/svg" xmlns:xlink="http://www.w3.org/1999/xlink" x="0px" y="0px"
	 viewBox="0 0 102 102" style="enable-background:new 0 0 102 102;" xml:space="preserve">
<style type="text/css">
	.st0{fill:#898989;}
	.st1{fill:#FFFFFF;stroke:#FFFFFF;stroke-width:3;stroke-miterlimit:10;}
	.st2{fill:#EDECEC;}
</style>
<circle class="st0" cx="51" cy="51" r="51"/>
<circle class="st1" cx="51" cy="51" r="42.6"/>
<ellipse class="st2" cx="51" cy="51.1" rx="41.2" ry="41.2"/>
<path class="st0" d="M77.3,33.8H61.2l-5.5-5.5c-0.7-0.6-1.5-0.9-2.4-0.9H38.5c-2.7,0-4.9,2.2-4.9,4.9v25.9c0,2.7,2.2,4.9,4.9,4.9
	h38.8c2.7,0,4.9-2.2,4.9-4.9V38.7C82.2,36,80,33.8,77.3,33.8z M80.6,58.1c0,1.8-1.5,3.2-3.2,3.2H38.5c-1.8,0-3.2-1.5-3.2-3.2V32.3
	c0-1.8,1.5-3.2,3.2-3.2h14.2c0.9,0,1.7,0.3,2.3,0.9l5.5,5.5h16.9c1.8,0,3.2,1.5,3.2,3.2V58.1z M71.7,66.2c-0.4,0-0.8,0.4-0.8,0.8
	v0.9c0,1.8-1.5,3.2-3.2,3.2H28.8c-1.8,0-3.2-1.5-3.2-3.2v-26c0-1.8,1.5-3.2,3.2-3.2h0.8c0.4,0,0.8-0.4,0.8-0.8s-0.4-0.8-0.8-0.8
	h-0.8c-2.7,0-4.9,2.2-4.9,4.9L24,67.9c0,2.7,2.2,4.9,4.9,4.9h38.7c2.7,0,4.8-2.2,4.8-4.9v-0.8C72.5,66.6,72.1,66.2,71.7,66.2z"/>
</svg>
