<?xml version="1.0" encoding="utf-8"?>
<!-- Generator: Adobe Illustrator 26.3.1, SVG Export Plug-In . SVG Version: 6.00 Build 0)  -->
<svg version="1.1" id="13" class="perso" xmlns="http://www.w3.org/2000/svg" xmlns:xlink="http://www.w3.org/1999/xlink" x="0px" y="0px"
	 viewBox="0 0 102 102" style="enable-background:new 0 0 102 102;" xml:space="preserve">
<style type="text/css">
	.st0{fill:#898989;}
	.st1{fill:#FFFFFF;stroke:#FFFFFF;stroke-width:3;stroke-miterlimit:10;}
	.st2{fill:#EDECEC;}
</style>
<circle class="st0" cx="51" cy="51" r="51"/>
<circle class="st1" cx="51" cy="51" r="42.6"/>
<ellipse class="st2" cx="51" cy="51.1" rx="41.2" ry="41.2"/>
<path class="st0" d="M46.1,44.5c-1.6,0-2.8,1.6-2.8,3.5s1.3,3.5,2.8,3.5s2.8-1.6,2.8-3.5C48.9,46.1,47.6,44.5,46.1,44.5z M46.1,50.2
	c-0.8,0-1.3-1-1.3-2.1s0.6-2,1.3-2c0.8,0,1.3,0.9,1.3,2C47.5,49.2,46.8,50.2,46.1,50.2z M75.8,69.3h-4.9V34.6c0-2-1.6-3.5-3.5-3.5
	h-9.9c-0.4,0-0.6,0.3-0.6,0.7s0.3,0.7,0.6,0.7h9.9c1.2,0,2.1,1,2.1,2.1V70c0,0.4,0.3,0.7,0.6,0.7h5.6c0.5,0,0.8-0.3,0.8-0.7
	C76.5,69.6,76.2,69.3,75.8,69.3z M52.5,26.1c-0.8-0.6-1.9-0.8-2.8-0.6l-15.9,4.1c-1.5,0.4-2.5,1.8-2.5,3.4v36.2h-5
	c-0.4,0-0.7,0.3-0.7,0.7c0,0.4,0.3,0.7,0.6,0.7H53c0.4,0,0.6-0.3,0.6-0.7v-41C53.9,27.8,53.4,26.8,52.5,26.1z M52.5,69.3H32.7V33
	c0-0.9,0.6-1.8,1.5-2L50,26.9c0.6-0.2,1.2,0,1.6,0.3c0.5,0.4,0.8,1,0.8,1.6L52.5,69.3L52.5,69.3z"/>
</svg>
