<?xml version="1.0" encoding="utf-8"?>
<!-- Generator: Adobe Illustrator 26.3.1, SVG Export Plug-In . SVG Version: 6.00 Build 0)  -->
<svg version="1.1" id="14" class="perso" xmlns="http://www.w3.org/2000/svg" xmlns:xlink="http://www.w3.org/1999/xlink" x="0px" y="0px"
	 viewBox="0 0 102 102" style="enable-background:new 0 0 102 102;" xml:space="preserve">
<style type="text/css">
	.st0{fill:#898989;}
	.st1{fill:#FFFFFF;stroke:#FFFFFF;stroke-width:3;stroke-miterlimit:10;}
	.st2{fill:#EDECEC;}
</style>
<circle class="st0" cx="51" cy="51" r="51"/>
<circle class="st1" cx="51" cy="51" r="42.6"/>
<ellipse class="st2" cx="51" cy="51" rx="41.2" ry="41.2"/>
<path class="st0" d="M44,39.4c0.1-0.2,0.3-0.4,0.6-0.4h12.7c0.3,0,0.5,0.2,0.6,0.4s0.1,0.5-0.1,0.7l-6.4,8.5
	c-0.1,0.2-0.3,0.3-0.6,0.3c-0.2,0-0.4-0.1-0.6-0.3l-6.4-8.5C43.9,39.9,43.9,39.6,44,39.4L44,39.4z M46.1,40.4L51,47l4.9-6.6H46.1z
	 M44.1,61.9c0.1-0.2,0.3-0.3,0.6-0.3h12.7c0.2,0,0.4,0.1,0.6,0.3l1,1.3c0.8,1.1,1.3,2.4,1.3,3.8v1.7c0,0.4-0.3,0.7-0.7,0.7h-17
	c-0.4,0-0.7-0.3-0.7-0.7V67c0-1.4,0.4-2.7,1.3-3.8L44.1,61.9z M45,63l-0.8,1c-0.6,0.9-1,1.9-1,3v1h15.6v-1c0-1.1-0.3-2.1-1-3L57,63
	H45z M34.1,29.1c0-0.4,0.3-0.7,0.7-0.7h32.5c0.4,0,0.7,0.3,0.7,0.7c0,0.4-0.3,0.7-0.7,0.7h-2.1v5.4c0,2.6-0.9,5.2-2.5,7.3L56.2,51
	l6.5,8.5c1.6,2.1,2.5,4.7,2.5,7.3v5.4h2.1c0.4,0,0.7,0.3,0.7,0.7s-0.3,0.7-0.7,0.7H34.8c-0.4,0-0.7-0.3-0.7-0.7s0.3-0.7,0.7-0.7h2.1
	v-5.4c0-2.6,0.9-5.2,2.5-7.3l6.5-8.5l-6.5-8.5c-1.6-2.1-2.5-4.7-2.5-7.3v-5.4h-2.1C34.4,29.8,34.1,29.5,34.1,29.1L34.1,29.1z
	 M38.3,35.2c0,2.3,0.8,4.6,2.2,6.4l6.9,9c0.2,0.3,0.2,0.5,0,0.9l-6.9,9c-1.4,1.9-2.2,4-2.2,6.4v5.4h25.5v-5.4c0-2.4-0.8-4.6-2.2-6.4
	l-6.9-9c-0.2-0.3-0.2-0.6,0-0.9l6.9-9c1.4-1.9,2.2-4.1,2.2-6.4v-5.4H38.3V35.2z"/>
</svg>
