<?xml version="1.0" encoding="utf-8"?>
<!-- Generator: Adobe Illustrator 26.3.1, SVG Export Plug-In . SVG Version: 6.00 Build 0)  -->
<svg version="1.1" id="16" class="perso" xmlns="http://www.w3.org/2000/svg" xmlns:xlink="http://www.w3.org/1999/xlink" x="0px" y="0px"
	 viewBox="0 0 102 102" style="enable-background:new 0 0 102 102;" xml:space="preserve">
<style type="text/css">
	.st0{fill:#898989;}
	.st1{fill:#FFFFFF;stroke:#FFFFFF;stroke-width:3;stroke-miterlimit:10;}
	.st2{fill:#EDECEC;}
</style>
<circle class="st0" cx="51" cy="51" r="51"/>
<circle class="st1" cx="51" cy="51" r="42.6"/>
<ellipse class="st2" cx="51" cy="51" rx="41.2" ry="41.2"/>
<path class="st0" d="M83.3,50.2c0,0.4-0.4,0.8-0.8,0.8H67.7l-6.2,12.5C61.3,63.8,61,64,60.6,64c-0.3,0-0.6-0.3-0.7-0.6L51,32.5
	L42.1,73c-0.1,0.4-0.4,0.6-0.8,0.6c-0.4,0-0.7-0.2-0.8-0.6l-6.4-22H19.5c-0.4,0-0.8-0.4-0.8-0.8s0.4-0.8,0.8-0.8h15.4
	c0.4,0,0.7,0.2,0.8,0.6l5.6,19.6l9-40.5c0.1-0.4,0.4-0.6,0.8-0.6c0.4,0,0.7,0.2,0.8,0.6L61,61l5.5-11.1c0.1-0.3,0.3-0.4,0.7-0.4
	h15.4C83,49.4,83.3,49.8,83.3,50.2z"/>
</svg>
