<?xml version="1.0" encoding="utf-8"?>
<!-- Generator: Adobe Illustrator 26.3.1, SVG Export Plug-In . SVG Version: 6.00 Build 0)  -->
<svg version="1.1" id="19" class="perso" xmlns="http://www.w3.org/2000/svg" xmlns:xlink="http://www.w3.org/1999/xlink" x="0px" y="0px"
	 viewBox="0 0 102 102" style="enable-background:new 0 0 102 102;" xml:space="preserve">
<style type="text/css">
	.st0{fill:#898989;}
	.st1{fill:#FFFFFF;stroke:#FFFFFF;stroke-width:3;stroke-miterlimit:10;}
	.st2{fill:#EDECEC;}
</style>
<circle class="st0" cx="51" cy="51" r="51"/>
<circle class="st1" cx="51" cy="51" r="42.6"/>
<ellipse class="st2" cx="51" cy="51.1" rx="41.2" ry="41.2"/>
<path class="st0" d="M70.7,31.4c-2.6-2.5-5.8-4-9.3-4c-4.1,0-8.7,1.9-13,6.3l-7.6,7.6c-5.4,5.3-6.2,13.3-5.6,18.7
	c0,0.2,0.1,0.4,0.1,0.7c0.2,1.3,0.8,2.6,1.6,3.6l-7.3,7.3c-0.3,0.3-0.3,0.7,0,1c0.1,0.1,0.3,0.2,0.5,0.2s0.4-0.1,0.5-0.2l7.3-7.3
	c1,0.9,2.3,1.4,3.6,1.6c0.2,0,0.4,0.1,0.7,0.1c0.9,0.1,1.9,0.2,3,0.2c5.1,0,11.3-1.4,15.7-5.8l7.6-7.6
	C76.5,45.6,76.3,36.9,70.7,31.4z M36.7,60.4c0-0.2-0.2-1.6-0.2-1.6c-0.4-5.3,0.8-12.1,5.3-16.6l7.6-7.6c3.8-3.8,8-5.8,12-5.8
	c3.1,0,6,1.2,8.3,3.5c4.1,4.1,4.6,9.5,1.8,14.9H55.9l4.5-4.5c0.3-0.3,0.3-0.7,0-1s-0.7-0.3-1,0L37.9,63.1
	C37.3,62.3,36.8,61.4,36.7,60.4z M59.9,60.2c-4.7,4.7-11.2,5.4-14.7,5.4c-0.8,0-1.5,0-2.3-0.1c0,0-0.9-0.1-1.1-0.1
	c-1-0.1-2-0.6-2.8-1.3l7-7h17L59.9,60.2z M67.5,52.6l-3.1,3.1h-17l7.1-7.1h16.2C69.8,50,68.8,51.3,67.5,52.6z"/>
</svg>
