<?xml version="1.0" encoding="utf-8"?>
<!-- Generator: Adobe Illustrator 26.3.1, SVG Export Plug-In . SVG Version: 6.00 Build 0)  -->
<svg version="1.1" id="20" class="perso" xmlns="http://www.w3.org/2000/svg" xmlns:xlink="http://www.w3.org/1999/xlink" x="0px" y="0px"
	 viewBox="0 0 102 102" style="enable-background:new 0 0 102 102;" xml:space="preserve">
<style type="text/css">
	.st0{fill:#898989;}
	.st1{fill:#FFFFFF;stroke:#FFFFFF;stroke-width:3;stroke-miterlimit:10;}
	.st2{fill:#EDECEC;}
</style>
<circle class="st0" cx="51" cy="51" r="51"/>
<circle class="st1" cx="51" cy="51" r="42.6"/>
<ellipse class="st2" cx="51" cy="51.1" rx="41.2" ry="41.2"/>
<path class="st0" d="M30.1,65.5c-2.3-2.3-2.3-6,0-8.4L57.2,30c2.3-2.3,6-2.3,8.4,0l6.4,6.4c2.3,2.3,2.3,6,0,8.3l-27,27
	c-2.3,2.3-6,2.3-8.3,0L30.1,65.5z M31.2,64.5l6.4,6.4c1.7,1.7,4.5,1.7,6.2,0l27.1-27.1c1.7-1.7,1.7-4.5,0-6.2l-6.4-6.4
	c-1.7-1.7-4.5-1.7-6.2,0L54,35.3l4.9,4.9c0.3,0.3,0.3,0.8,0,1.1s-0.8,0.3-1.1,0L53,36.4l-4.9,4.9l4.9,4.8c0.3,0.3,0.3,0.8,0,1.1
	s-0.8,0.3-1.1,0l-4.8-4.9l-4.9,4.9l4.9,4.8c0.3,0.3,0.3,0.8,0,1.1s-0.8,0.3-1.1,0l-4.8-4.9L36.4,53l4.9,4.8c0.3,0.3,0.3,0.8,0,1.1
	s-0.8,0.3-1.1,0L35.3,54l-4.2,4.2C29.4,59.9,29.4,62.8,31.2,64.5L31.2,64.5z"/>
</svg>
