<?xml version="1.0" encoding="utf-8"?>
<!-- Generator: Adobe Illustrator 26.3.1, SVG Export Plug-In . SVG Version: 6.00 Build 0)  -->
<svg version="1.1" id="21" class="perso" xmlns="http://www.w3.org/2000/svg" xmlns:xlink="http://www.w3.org/1999/xlink" x="0px" y="0px"
	 viewBox="0 0 102 102" style="enable-background:new 0 0 102 102;" xml:space="preserve">
<style type="text/css">
	.st0{fill:#898989;}
	.st1{fill:#FFFFFF;stroke:#FFFFFF;stroke-width:3;stroke-miterlimit:10;}
	.st2{fill:#EDECEC;}
</style>
<circle class="st0" cx="51" cy="51" r="51"/>
<circle class="st1" cx="51" cy="51" r="42.6"/>
<ellipse class="st2" cx="51" cy="51" rx="41.2" ry="41.2"/>
<path class="st0" d="M53,46.6c-0.3-0.3-0.8-0.2-1.1,0.1s-0.2,0.8,0.1,1.1l14.8,12c1,0.8,1.2,2.3,0.3,3.3l-0.9,1.2
	c-0.8,1-2.3,1.2-3.3,0.4l-1.1-1l-3.6,4.4c-0.5,0.6-1.2,1-2,1c-0.8,0.1-1.5-0.1-2.1-0.6L52.3,67l-0.6-0.4l-0.5,0.5
	c-0.9,1.1-2.3,1.9-3.7,2c-1.5,0.2-2.9-0.3-4-1.2l-9.2-8.3H20.2c-0.4,0-0.8,0.4-0.8,0.8c0,0.4,0.4,0.8,0.8,0.8h13.4l8.7,7.9
	c1.4,1,2.9,1.6,4.5,1.6c0.2,0,0.5,0,0.7,0c1.6-0.2,3.1-0.9,4.3-2l1.2,1c0.9,0.8,2.1,1.1,3.3,1s2.3-0.7,3-1.6l2.6-3.2
	c1.7,1.3,4.1,1,5.5-0.6l0.9-1.2c1.4-1.7,1.1-4.2-0.6-5.5L53,46.6z M20.2,39.1h12.2l0.2-0.2c4-3.8,9.2-6,14.8-6
	c0.4,0,0.8-0.4,0.8-0.8c0-0.4-0.4-0.8-0.8-0.8c-5.9,0-11.4,2.2-15.6,6.2H20.2c-0.4,0-0.8,0.4-0.8,0.8S19.8,39.1,20.2,39.1z
	 M82.6,38.3c0-0.4-0.4-0.8-0.8-0.8H70.3c-4.2-4.1-9.7-6.3-15.6-6.3l-0.8,0.1c-1,0-1.9,0.4-2.7,1l-9.7,8.9l-0.1,0.1
	c-1.8,1.8-1.9,4.7-0.2,6.6c0.8,0.8,2.1,1.5,3.6,1.5c1,0,2-0.3,3-1.1l8-7.3c0.3-0.3,0.3-0.8,0.1-1.1c-0.3-0.3-0.8-0.3-1.1,0l-7.8,7
	l-0.4,0.2v0.2c-1.7,1.2-3.5,0.3-4.2-0.4c-1.2-1.3-1.1-3.2,0.2-4.4l9.7-8.9c0.4-0.4,1-0.6,1.6-0.6h0.9c5.6,0,10.8,2.2,14.7,6.1
	l0.2,0.2h12.2C82.3,39.1,82.6,38.8,82.6,38.3z M81.8,59.7H71.5c-0.4,0-0.8,0.4-0.8,0.8c0,0.4,0.4,0.8,0.8,0.8h10.4
	c0.4,0,0.8-0.4,0.8-0.8C82.7,60.1,82.3,59.7,81.8,59.7z"/>
</svg>
