<?xml version="1.0" encoding="utf-8"?>
<!-- Generator: Adobe Illustrator 26.3.1, SVG Export Plug-In . SVG Version: 6.00 Build 0)  -->
<svg version="1.1" id="22" class="perso" xmlns="http://www.w3.org/2000/svg" xmlns:xlink="http://www.w3.org/1999/xlink" x="0px" y="0px"
	 viewBox="0 0 102 102" style="enable-background:new 0 0 102 102;" xml:space="preserve">
<style type="text/css">
	.st0{fill:#898989;}
	.st1{fill:#FFFFFF;stroke:#FFFFFF;stroke-width:3;stroke-miterlimit:10;}
	.st2{fill:#EDECEC;}
</style>
<circle class="st0" cx="51" cy="51" r="51"/>
<circle class="st1" cx="51" cy="51" r="42.6"/>
<ellipse class="st2" cx="51" cy="51.1" rx="41.2" ry="41.2"/>
<path class="st0" d="M41.7,46.2c-0.5-0.5-1.3-0.8-2-0.8c-0.2,0-0.4,0-0.6,0.1c-0.9,0.2-1.7,0.9-2,1.8l-8.4,22.6
	c-0.4,1-0.1,2.2,0.6,3c0.5,0.5,1.2,0.8,1.9,0.8c0.3,0,0.7-0.1,1-0.2L54.7,65c0.9-0.3,1.6-1.1,1.8-2s-0.1-1.9-0.8-2.6L41.7,46.2z
	 M31.7,72.1c-0.2,0.1-0.3,0.1-0.5,0.1c-0.4,0-0.7-0.1-1-0.4c-0.4-0.4-0.5-1-0.3-1.5l3-8.1l6.9,6.9L31.7,72.1z M41.2,68.6l-7.8-7.8
	L36,54l12,12L41.2,68.6z M54.3,63.6l-4.8,1.8l-13-12.9l1.8-4.8c0.2-0.5,0.6-0.8,1-0.9c0.1,0,0.2,0,0.3,0c0.4,0,0.7,0.2,1,0.4
	l14.1,14.1c0.3,0.3,0.5,0.8,0.4,1.3C55.1,63.1,54.8,63.5,54.3,63.6z M72.8,52.4c0.4,0,0.6-0.3,0.6-0.6c0-0.4-0.3-0.6-0.6-0.6h-1
	c-4.8,0-9.2,2.7-12.2,7.4c-0.2,0.3-0.1,0.8,0.2,1c0.1,0.1,0.2,0.1,0.4,0.1s0.5-0.1,0.6-0.3c2.8-4.3,6.8-6.7,11-6.7h1V52.4z
	 M43.2,42.5c0.1,0,0.2,0,0.4-0.1c4.7-3,7.4-7.5,7.4-12.2v-1.1c0-0.4-0.3-0.7-0.7-0.7s-0.7,0.3-0.7,0.7v1.1c0,4.3-2.5,8.3-6.7,11
	c-0.4,0.2-0.4,0.6-0.2,1C42.7,42.4,43,42.5,43.2,42.5z M34,34c1.6,0,2.7-1.3,2.7-2.7s-1.2-2.8-2.7-2.8s-2.8,1.3-2.8,2.8
	S32.5,34,34,34z M34,29.8c0.8,0,1.3,0.6,1.3,1.3c0,0.8-0.6,1.3-1.3,1.3c-0.8,0-1.3-0.6-1.3-1.3C32.6,30.4,33.2,29.8,34,29.8z
	 M51.6,48.2c0.2,0,0.4-0.1,0.5-0.3c1.3-1.6,2.6-1.7,4.2-1.8c1.6-0.1,3.5-0.3,5.1-2.3c1.7-2,1.6-3.9,1.5-5.5s-0.2-3,1.1-4.6
	s2.6-1.6,4.2-1.8c1.6-0.1,3.5-0.3,5.1-2.3c0.2-0.3,0.2-0.7-0.1-1c-0.3-0.2-0.7-0.2-1,0.1c-1.3,1.6-2.6,1.6-4.2,1.8
	c-1.6,0.1-3.5,0.3-5.1,2.3c-1.7,2-1.5,3.9-1.4,5.5s0.2,3-1.1,4.6s-2.6,1.7-4.2,1.8S52.7,45,51.1,47c-0.2,0.3-0.2,0.7,0.1,1
	C51.4,48.1,51.5,48.2,51.6,48.2z M70.7,65.2c-1.6,0-2.7,1.3-2.7,2.7c0,1.5,1.3,2.7,2.7,2.7c1.5,0,2.7-1.3,2.7-2.7
	C73.5,66.4,72.3,65.2,70.7,65.2z M70.7,69.3c-0.8,0-1.3-0.6-1.3-1.3c0-0.8,0.6-1.3,1.3-1.3c0.8,0,1.3,0.6,1.3,1.3
	C72.1,68.8,71.6,69.3,70.7,69.3z M70.7,39.7c-1.6,0-2.7,1.3-2.7,2.7c0,1.5,1.3,2.7,2.7,2.7c1.5,0,2.7-1.3,2.7-2.7
	C73.5,41,72.3,39.7,70.7,39.7z M70.7,44c-0.8,0-1.3-0.6-1.3-1.3c0-0.8,0.6-1.3,1.3-1.3c0.8,0,1.3,0.6,1.3,1.3
	C72.1,43.3,71.6,44,70.7,44z"/>
</svg>
