<?xml version="1.0" encoding="utf-8"?>
<!-- Generator: Adobe Illustrator 26.3.1, SVG Export Plug-In . SVG Version: 6.00 Build 0)  -->
<svg version="1.1" id="5" class="perso" xmlns="http://www.w3.org/2000/svg" xmlns:xlink="http://www.w3.org/1999/xlink" x="0px" y="0px"
	 viewBox="0 0 102 102" style="enable-background:new 0 0 102 102;" xml:space="preserve">
<style type="text/css">
	.st0{fill:#898989;}
	.st1{fill:#FFFFFF;stroke:#FFFFFF;stroke-width:3;stroke-miterlimit:10;}
	.st2{fill:#EDECEC;}
</style>
<circle class="st0" cx="51" cy="51" r="51"/>
<circle class="st1" cx="51" cy="51" r="42.6"/>
<ellipse class="st2" cx="51" cy="51" rx="41.2" ry="41.2"/>
<path class="st0" d="M49.6,64.5c0,4.8-3.7,8.8-8.5,9.2l0,0l0,0H28.4c-1.6,0-2.8-1.3-2.8-2.8c0-1.6,1.3-2.8,2.8-2.8h0.4
	c1.5,0,2.6-1.6,2.5-3.1c0-0.1,0-0.3,0-0.4c0-5.1,4.1-9.2,9.2-9.2c0.7,0,1.3,0.1,2,0.2L68,29.8c1.9-1.9,5.1-1.9,7,0s1.9,5.1,0,7
	L49.4,62.5C49.5,63.1,49.6,63.8,49.6,64.5L49.6,64.5z M74,35.8c1.4-1.4,1.4-3.6,0-5c-1.4-1.4-3.6-1.4-5,0L51.8,48l5,5L74,35.8z
	 M55.9,54l-5-5l-7.1,7.1l5,5L55.9,54z M32.6,64.5c0,0.1,0,0.3,0,0.4c0.1,1.1-0.3,2.2-0.9,3c-0.7,0.9-1.7,1.5-3,1.5h-0.4
	c-0.8,0-1.4,0.6-1.4,1.4s0.6,1.4,1.4,1.4h12.4c0.1,0,0.2,0,0.2,0c4-0.3,7.2-3.7,7.2-7.8c0-0.7-0.1-1.4-0.3-2.1L42.5,57
	c-0.6-0.2-1.3-0.3-2-0.3C36.1,56.7,32.6,60.2,32.6,64.5L32.6,64.5z M39.7,29.7l11.7,11.7l-1,1l-4.8-4.8l-8.1,8.1l4.8,4.8l-1,1
	L29.7,39.7c-1.7-1.7-1.7-4.3,0-6l4.1-4.1C35.4,28,38.1,28,39.7,29.7L39.7,29.7z M38.7,30.7c-1.1-1.1-2.9-1.1-4,0l-4.1,4.1
	c-1.1,1.1-1.1,2.9,0,4l5.9,5.9l8.1-8.1L38.7,30.7z M62.5,54.4l1-1.1l4.7,4.7c1,1.2,1.9,2.5,2.3,4l3.2,10.7c0.1,0.3,0,0.5-0.2,0.7
	s-0.5,0.2-0.7,0.2L62,70.5c-1.5-0.4-2.8-1.3-4-2.3l-4.7-4.7l1.1-1l4.7,4.7c0.9,0.9,2.1,1.6,3.3,2l9.5,2.8l-2.8-9.5
	c-0.4-1.3-1-2.4-2-3.3L62.5,54.4z"/>
</svg>
