<?xml version="1.0" encoding="utf-8"?>
<!-- Generator: Adobe Illustrator 26.3.1, SVG Export Plug-In . SVG Version: 6.00 Build 0)  -->
<svg version="1.1" id="6" class="perso" xmlns="http://www.w3.org/2000/svg" xmlns:xlink="http://www.w3.org/1999/xlink" x="0px" y="0px"
	 viewBox="0 0 102 102" style="enable-background:new 0 0 102 102;" xml:space="preserve">
<style type="text/css">
	.st0{fill:#898989;}
	.st1{fill:#FFFFFF;stroke:#FFFFFF;stroke-width:3;stroke-miterlimit:10;}
	.st2{fill:#EDECEC;}
</style>
<circle class="st0" cx="51" cy="51.7" r="51"/>
<circle class="st1" cx="51" cy="51.7" r="42.6"/>
<ellipse class="st2" cx="51" cy="51.7" rx="41.2" ry="41.2"/>
<path class="st0" d="M75.9,40.1c-0.5-1.7-1.2-3.6-1.8-5.7c-0.6-1.9-1.9-3.5-3.7-4.4c-1.7-0.9-3.5-1-5.3-0.5L63,30.2
	c-0.4,0.1-0.7,0.6-0.5,1c0.1,0.4,0.6,0.7,1,0.5l2.1-0.7c1.4-0.4,2.8-0.3,4.1,0.4c1.4,0.7,2.4,1.9,2.9,3.5c0.7,2.1,1.3,4,1.8,5.7
	c1.8,5.7,2.9,9.2,3.6,12.5c-2.5-3.7-6.7-6.2-11.5-6.2c-5.9,0-10.8,3.7-12.8,8.9h-5.1c-2-5.2-6.9-9-12.8-9c-4.8,0-9,2.5-11.5,6.2
	c0.6-3.3,1.7-6.8,3.6-12.5c0.5-1.7,1.2-3.6,1.8-5.7c0.5-1.5,1.5-2.8,2.9-3.5c1.3-0.7,2.7-0.8,4.1-0.4l2.1,0.7c0.4,0.1,0.9,0,1-0.5
	c0.1-0.4-0.1-0.9-0.5-1l-2.1-0.7c-1.8-0.6-3.7-0.4-5.3,0.5c-1.8,0.9-3.1,2.5-3.7,4.4c-0.7,2.2-1.3,4.1-1.8,5.8
	c-3.1,9.6-4.3,13.3-4.3,20.5c0,7.6,6.1,13.7,13.7,13.7s13.7-6.1,13.7-13.7c0-1.1-0.2-2.2-0.4-3.2h4.1c-0.3,1-0.4,2.1-0.4,3.2
	c0,7.6,6.1,13.7,13.6,13.7s13.7-6.1,13.7-13.7C80.1,53.4,78.9,49.7,75.9,40.1z M35.8,72.6c-6.7,0-12.1-5.4-12.1-12.1
	s5.4-12.1,12.1-12.1s12.1,5.4,12.1,12.1S42.5,72.6,35.8,72.6z M66.4,72.6c-6.7,0-12.1-5.4-12.1-12.1s5.4-12.1,12.1-12.1
	s12,5.4,12,12.1S73.1,72.6,66.4,72.6z"/>
</svg>
