<?xml version="1.0" encoding="utf-8"?>
<!-- Generator: Adobe Illustrator 26.3.1, SVG Export Plug-In . SVG Version: 6.00 Build 0)  -->
<svg version="1.1" id="8" class="perso" xmlns="http://www.w3.org/2000/svg" xmlns:xlink="http://www.w3.org/1999/xlink" x="0px" y="0px"
	 viewBox="0 0 102 102" style="enable-background:new 0 0 102 102;" xml:space="preserve">
<style type="text/css">
	.st0{fill:#898989;}
	.st1{fill:#FFFFFF;stroke:#FFFFFF;stroke-width:3;stroke-miterlimit:10;}
	.st2{fill:#EDECEC;}
</style>
<circle class="st0" cx="51" cy="51" r="51"/>
<circle class="st1" cx="51" cy="51" r="42.6"/>
<ellipse class="st2" cx="51" cy="51" rx="41.2" ry="41.2"/>
<path class="st0" d="M78.8,53.1l-9.6-15.5c-0.3-0.5-0.7-0.7-1.2-0.7s-0.9,0.2-1.2,0.6L57.2,53c-0.3,0.5-0.5,1.1-0.5,1.7
	c0.5,5.9,5.4,10.4,11.3,10.4s10.8-4.6,11.3-10.4C79.4,54.2,79.2,53.6,78.8,53.1z M58.4,53.8L68,38.3l0,0l0,0l9.7,15.6L58.4,53.8
	L58.4,53.8z M67.9,63.8c-4.9,0-9.1-3.7-9.8-8.5h19.6C77.1,60.1,72.9,63.8,67.9,63.8z M45.4,54.8c0.1-0.6-0.1-1.2-0.5-1.7l-9.6-15.5
	c-0.3-0.5-0.7-0.7-1.3-0.7c-0.5,0-0.9,0.2-1.2,0.6l-9.6,15.6c-0.3,0.5-0.5,1.1-0.5,1.7c0.5,5.8,5.4,10.4,11.2,10.4
	S44.9,60.6,45.4,54.8z M24.4,53.8L34,38.3l0,0l0,0l9.7,15.6L24.4,53.8L24.4,53.8z M24.3,55.3h19.6c-0.7,4.8-4.9,8.5-9.8,8.5
	C29.1,63.8,25,60.1,24.3,55.3z M70,72.2H51.7V39.7c0,0,0,0,0-0.1c2.9-0.3,5.1-2.7,5.1-5.6H70c0.4,0,0.6-0.3,0.6-0.7
	s-0.2-0.7-0.6-0.7H56.7c-0.1,0-0.1,0.1-0.2,0.1c-0.6-2.5-2.8-4.3-5.5-4.3s-4.9,1.8-5.5,4.3c-0.1,0-0.1-0.1-0.2-0.1H31.9
	c-0.4,0-0.6,0.3-0.6,0.7s0.2,0.7,0.6,0.7h13.4c0,2.9,2.2,5.2,5,5.6c0.1,0,0.1,0,0.1,0.1v32.5H31.9c-0.4,0-0.6,0.3-0.6,0.7
	s0.2,0.7,0.6,0.7H70c0.4,0,0.6-0.3,0.6-0.7S70.5,72.2,70,72.2z M46.8,34.1c0-2.3,1.9-4.2,4.2-4.2s4.2,1.9,4.2,4.2s-1.7,4.2-4.1,4.2
	C48.7,38.3,46.8,36.4,46.8,34.1z"/>
</svg>
