<?xml version="1.0" encoding="utf-8"?>
<!-- Generator: Adobe Illustrator 26.3.1, SVG Export Plug-In . SVG Version: 6.00 Build 0)  -->
<svg version="1.1" id="9" class="perso" xmlns="http://www.w3.org/2000/svg" xmlns:xlink="http://www.w3.org/1999/xlink" x="0px" y="0px"
	 viewBox="0 0 102 102" style="enable-background:new 0 0 102 102;" xml:space="preserve">
<style type="text/css">
	.st0{fill:#898989;}
	.st1{fill:#FFFFFF;stroke:#FFFFFF;stroke-width:3;stroke-miterlimit:10;}
	.st2{fill:#EDECEC;}
</style>
<circle class="st0" cx="51" cy="51" r="51"/>
<circle class="st1" cx="51" cy="51" r="42.6"/>
<ellipse class="st2" cx="51" cy="51" rx="41.2" ry="41.2"/>
<path class="st0" d="M70.4,28.9c-0.5-0.3-1-0.5-1.6-0.5c-0.5,0-1,0.1-1.4,0.4L27.8,51.3c-0.9,0.6-1.5,1.6-1.4,2.6s0.7,2,1.7,2.4
	l9.1,3.8L42.7,73c0.1,0.2,0.2,0.3,0.4,0.4c0.1,0.1,0.2,0.1,0.2,0.1c0.2,0,0.4-0.1,0.5-0.2l7.6-7.3L62,70.6c0.4,0.1,0.7,0.2,1.1,0.2
	c0.5,0,1-0.1,1.4-0.4c0.8-0.4,1.3-1.2,1.4-2l5.7-36.7C71.8,30.6,71.4,29.5,70.4,28.9z M27.8,53.9c0-0.5,0.2-1,0.7-1.3L68.1,30
	c0.1,0,0.2,0,0.2-0.1L37.5,58.8l-8.8-3.6C28.2,54.9,27.9,54.5,27.8,53.9z M62.8,37.1l-20,24.8c-0.1,0.1-0.2,0.3-0.2,0.4v7.1
	l-4.1-9.7L62.8,37.1z M44.1,71.3v-8.2l5.9,2.5L44.1,71.3z M64.6,68.2c-0.1,0.4-0.3,0.8-0.7,1c-0.2,0.1-0.5,0.2-0.7,0.2
	s-0.4,0-0.5-0.1l-17.9-7.5L70,30.4c0.2,0.3,0.3,0.6,0.3,1L64.6,68.2z"/>
</svg>
