<?xml version="1.0" encoding="utf-8"?>
<!-- Generator: Adobe Illustrator 26.3.1, SVG Export Plug-In . SVG Version: 6.00 Build 0)  -->
<svg version="1.1" id="Calque_1" xmlns="http://www.w3.org/2000/svg" xmlns:xlink="http://www.w3.org/1999/xlink" x="0px" y="0px"
	 viewBox="0 0 102.05 102.05" style="enable-background:new 0 0 102.05 102.05;" xml:space="preserve">
<style type="text/css">
	.st0{fill:#933088;}
	.st1{fill:#FFFFFF;}
	.st2{fill:#EDECEC;}
	.st3{fill:#1E1E1C;}
	.st4{font-family:'TitilliumWeb-Light';}
	.st5{font-size:10.2367px;}
</style>
<circle class="st0" cx="51.02" cy="51.02" r="51.02"/>
<circle class="st1" cx="51.02" cy="51.02" r="42.59"/>
<ellipse transform="matrix(0.3163 -0.9487 0.9487 0.3163 -13.5197 83.2879)" class="st2" cx="51.02" cy="51.02" rx="41.21" ry="41.21"/>
<g>
	<text transform="matrix(1 0 0 1 24.4854 72.4463)" class="st3 st4 st5">CRÉATIF(VE)</text>
	<path class="st0" d="M50.02,52.45c0,3.45-2.66,6.27-6.04,6.53l-0.01,0.01c0,0.01-0.01,0.01-0.01,0.01H34.9
		c-1.11,0-2.02-0.9-2.02-2.02s0.9-2.02,2.02-2.02h0.25c1.08,0,1.83-1.12,1.77-2.2c-0.01-0.1-0.01-0.21-0.01-0.31
		c0-3.62,2.93-6.55,6.55-6.55c0.48,0,0.95,0.05,1.4,0.15l18.26-18.26c1.38-1.38,3.61-1.38,4.99,0c1.38,1.38,1.38,3.61,0,4.99
		L49.87,51.03C49.97,51.49,50.02,51.97,50.02,52.45L50.02,52.45z M67.41,32.06c0.98-0.98,0.98-2.58,0-3.56
		c-0.98-0.98-2.58-0.98-3.56,0L51.61,40.74l3.56,3.56L67.41,32.06z M54.46,45.01l-3.56-3.56l-5.08,5.08l3.56,3.56L54.46,45.01z
		 M37.93,52.45c0,0.09,0,0.18,0.01,0.27c0.04,0.77-0.21,1.56-0.67,2.16c-0.46,0.61-1.2,1.1-2.11,1.1H34.9
		c-0.56,0-1.01,0.45-1.01,1.01s0.45,1.01,1.01,1.01h8.82c0.09-0.01,0.14-0.01,0.18-0.02c2.86-0.22,5.11-2.61,5.11-5.52
		c0-0.52-0.08-1.03-0.21-1.51l-3.88-3.82c-0.42-0.13-0.93-0.21-1.45-0.21C40.41,46.91,37.93,49.39,37.93,52.45L37.93,52.45z
		 M42.98,27.68l8.35,8.35l-0.71,0.71l-3.43-3.43l-5.74,5.74l3.43,3.43l-0.71,0.71l-8.35-8.35c-1.18-1.18-1.18-3.09,0-4.27l2.89-2.89
		C39.89,26.5,41.81,26.5,42.98,27.68L42.98,27.68z M42.27,28.39c-0.79-0.79-2.06-0.79-2.85,0l-2.89,2.89
		c-0.79,0.79-0.79,2.06,0,2.85l4.21,4.21l5.74-5.74L42.27,28.39z M59.18,45.29l0.71-0.77l3.34,3.34c0.72,0.83,1.34,1.79,1.65,2.84
		l2.25,7.65c0.05,0.18,0,0.37-0.13,0.5c-0.13,0.13-0.32,0.18-0.5,0.13l-7.65-2.25c-1.05-0.31-2.01-0.93-2.84-1.65l-3.34-3.34
		l0.77-0.71l3.34,3.34c0.65,0.65,1.47,1.13,2.36,1.4l6.77,1.99l-1.99-6.77c-0.26-0.89-0.74-1.7-1.4-2.36L59.18,45.29z"/>
</g>
</svg>
