<?xml version="1.0" encoding="utf-8"?>
<!-- Generator: Adobe Illustrator 26.3.1, SVG Export Plug-In . SVG Version: 6.00 Build 0)  -->
<svg version="1.1" id="Calque_1" xmlns="http://www.w3.org/2000/svg" xmlns:xlink="http://www.w3.org/1999/xlink" x="0px" y="0px"
	 viewBox="0 0 102.05 102.05" style="enable-background:new 0 0 102.05 102.05;" xml:space="preserve">
<style type="text/css">
	.st0{fill:#933088;}
	.st1{fill:#FFFFFF;}
	.st2{fill:#EDECEC;}
	.st3{fill:#1E1E1C;}
	.st4{font-family:'TitilliumWeb-Light';}
	.st5{font-size:10.2367px;}
</style>
<circle class="st0" cx="51.02" cy="51.02" r="51.02"/>
<circle class="st1" cx="51.02" cy="51.02" r="42.59"/>
<ellipse transform="matrix(0.3163 -0.9487 0.9487 0.3163 -13.5197 83.2879)" class="st2" cx="51.02" cy="51.02" rx="41.21" ry="41.21"/>
<g>
	<path class="st0" d="M68.64,34.54c-0.39-1.21-0.82-2.55-1.3-4.07c-0.44-1.38-1.36-2.5-2.6-3.14c-1.17-0.61-2.51-0.72-3.77-0.33
		l-1.47,0.46c-0.3,0.1-0.47,0.42-0.37,0.72c0.09,0.3,0.43,0.47,0.72,0.37l1.47-0.46c0.96-0.3,1.99-0.22,2.9,0.25
		c0.97,0.5,1.7,1.38,2.04,2.47c0.48,1.52,0.91,2.87,1.3,4.08c1.3,4.04,2.09,6.51,2.53,8.85c-1.74-2.64-4.72-4.39-8.12-4.39
		c-4.16,0-7.68,2.62-9.06,6.29h-3.6c-1.39-3.68-4.91-6.36-9.06-6.36c-3.4,0-6.38,1.75-8.12,4.39c0.44-2.33,1.23-4.81,2.53-8.85
		c0.39-1.21,0.82-2.55,1.3-4.08c0.34-1.09,1.07-1.97,2.04-2.47c0.9-0.47,1.93-0.56,2.9-0.25l1.47,0.46c0.29,0.1,0.62-0.01,0.72-0.37
		c0.1-0.3-0.07-0.62-0.37-0.72l-1.47-0.46c-1.26-0.4-2.59-0.28-3.77,0.33c-1.24,0.65-2.17,1.76-2.6,3.14
		c-0.48,1.58-0.91,2.93-1.3,4.14c-2.18,6.78-3.04,9.41-3.04,14.52c0,5.37,4.35,9.72,9.72,9.72s9.72-4.35,9.72-9.72
		c0-0.79-0.12-1.55-0.3-2.29h2.89c-0.18,0.74-0.3,1.5-0.3,2.29c0,5.37,4.35,9.72,9.66,9.72s9.72-4.35,9.72-9.72
		C71.68,43.95,70.82,41.32,68.64,34.54z M40.24,57.58c-4.73,0-8.58-3.85-8.58-8.58s3.85-8.58,8.58-8.58s8.58,3.85,8.58,8.58
		S44.97,57.58,40.24,57.58z M61.96,57.58c-4.73,0-8.58-3.85-8.58-8.58s3.85-8.58,8.58-8.58s8.51,3.85,8.51,8.58
		S66.69,57.58,61.96,57.58z"/>
	<text transform="matrix(1 0 0 1 23.4732 72.503)" class="st3 st4 st5">CURIEUX(SE)</text>
</g>
</svg>
