<?xml version="1.0" encoding="utf-8"?>
<!-- Generator: Adobe Illustrator 26.3.1, SVG Export Plug-In . SVG Version: 6.00 Build 0)  -->
<svg version="1.1" id="Calque_1" xmlns="http://www.w3.org/2000/svg" xmlns:xlink="http://www.w3.org/1999/xlink" x="0px" y="0px"
	 viewBox="0 0 102.05 102.05" style="enable-background:new 0 0 102.05 102.05;" xml:space="preserve">
<style type="text/css">
	.st0{fill:#933088;}
	.st1{fill:#FFFFFF;}
	.st2{fill:#EDECEC;}
	.st3{fill:#1E1E1C;}
	.st4{font-family:'TitilliumWeb-Light';}
	.st5{font-size:10.2367px;}
</style>
<circle class="st0" cx="51.02" cy="51.02" r="51.02"/>
<circle class="st1" cx="51.02" cy="51.02" r="42.59"/>
<ellipse transform="matrix(0.3163 -0.9487 0.9487 0.3163 -13.5197 83.2879)" class="st2" cx="51.02" cy="51.02" rx="41.21" ry="41.21"/>
<g>
	<path class="st0" d="M70.49,43.86l-6.75-10.84c-0.2-0.35-0.51-0.5-0.83-0.5c-0.32,0-0.63,0.15-0.83,0.44l-6.75,10.84
		c-0.24,0.36-0.38,0.79-0.34,1.22c0.34,4.12,3.76,7.32,7.92,7.32s7.58-3.19,7.92-7.26C70.87,44.65,70.73,44.22,70.49,43.86z
		 M56.18,44.38l6.74-10.87c0,0,0,0,0,0l-0.01-0.03l6.77,10.93H56.16C56.17,44.4,56.17,44.4,56.18,44.38z M62.86,51.35
		c-3.45,0-6.37-2.58-6.86-5.94h13.72C69.28,48.77,66.36,51.35,62.86,51.35z M47.05,45.08c0.04-0.43-0.1-0.85-0.34-1.21l-6.75-10.84
		c-0.2-0.35-0.51-0.5-0.89-0.5c-0.32,0-0.63,0.15-0.83,0.44l-6.7,10.9c-0.24,0.36-0.38,0.79-0.34,1.21
		c0.34,4.07,3.76,7.26,7.86,7.26S46.71,49.15,47.05,45.08z M32.4,44.38l6.74-10.87c0,0,0,0,0,0l-0.02-0.02l6.77,10.92H32.38
		C32.39,44.4,32.39,44.4,32.4,44.38z M32.28,45.41h13.72c-0.49,3.36-3.41,5.94-6.86,5.94C35.69,51.35,32.77,48.77,32.28,45.41z
		 M64.34,57.29H51.46V34.51c0-0.02-0.02-0.03-0.02-0.05c2.02-0.24,3.54-1.89,3.54-3.92h9.36c0.27,0,0.44-0.22,0.44-0.5
		s-0.11-0.5-0.44-0.5h-9.36c-0.05,0-0.08,0.04-0.12,0.05c-0.42-1.73-1.97-3.02-3.84-3.02s-3.42,1.29-3.84,3.02
		c-0.04-0.01-0.07-0.05-0.12-0.05h-9.41c-0.27,0-0.44,0.22-0.44,0.5s0.17,0.5,0.44,0.5H47c0,2.03,1.53,3.68,3.49,3.92
		c0.05,0.02,0.04,0.03,0.04,0.05v22.79H37.65c-0.27,0-0.44,0.22-0.44,0.5s0.17,0.5,0.44,0.5h26.69c0.27,0,0.44-0.22,0.44-0.5
		S64.67,57.29,64.34,57.29z M48.05,30.54c0-1.64,1.33-2.97,2.92-2.97s2.92,1.33,2.92,2.97s-1.22,2.97-2.86,2.97
		S48.05,32.18,48.05,30.54z"/>
	<text transform="matrix(1 0 0 1 24.9676 72.6202)" class="st3 st4 st5">DIPLOMATE</text>
</g>
</svg>
