<?xml version="1.0" encoding="utf-8"?>
<!-- Generator: Adobe Illustrator 26.3.1, SVG Export Plug-In . SVG Version: 6.00 Build 0)  -->
<svg version="1.1" id="Calque_1" xmlns="http://www.w3.org/2000/svg" xmlns:xlink="http://www.w3.org/1999/xlink" x="0px" y="0px"
	 viewBox="0 0 102.05 102.05" style="enable-background:new 0 0 102.05 102.05;" xml:space="preserve">
<style type="text/css">
	.st0{fill:#933088;}
	.st1{fill:#FFFFFF;}
	.st2{fill:#EDECEC;}
	.st3{fill:#1E1E1C;}
	.st4{font-family:'TitilliumWeb-Light';}
	.st5{font-size:10.2367px;}
</style>
<circle class="st0" cx="51.02" cy="51.02" r="51.02"/>
<circle class="st1" cx="51.02" cy="51.02" r="42.59"/>
<ellipse transform="matrix(0.3163 -0.9487 0.9487 0.3163 -13.5197 83.2879)" class="st2" cx="51.02" cy="51.02" rx="41.21" ry="41.21"/>
<g>
	<path class="st0" d="M66.29,26.93c-0.34-0.24-0.74-0.35-1.14-0.35c-0.34,0-0.69,0.09-1,0.27L35.93,42.91
		c-0.67,0.44-1.06,1.16-1.01,1.88s0.53,1.44,1.24,1.74l6.5,2.71l3.9,9.23c0.05,0.12,0.14,0.22,0.26,0.27
		c0.07,0.08,0.13,0.1,0.14,0.1c0.13,0,0.25-0.05,0.35-0.14l5.4-5.19l7.58,3.16c0.25,0.1,0.51,0.16,0.77,0.16
		c0.34,0,0.68-0.09,0.99-0.26c0.54-0.3,0.91-0.84,1.01-1.45l4.03-26.14C67.26,28.13,66.93,27.37,66.29,26.93z M35.93,44.78
		c-0.02-0.38,0.17-0.74,0.51-0.94l28.22-16.12c0.05-0.03,0.12-0.03,0.17-0.05L42.78,48.24l-6.24-2.6
		C36.19,45.49,35.95,45.15,35.93,44.78z M60.83,32.77L46.62,50.45c-0.08,0.09-0.11,0.2-0.11,0.31v5.06l-2.93-6.95L60.83,32.77z
		 M47.51,57.13V51.3l4.23,1.76L47.51,57.13z M62.11,54.94c-0.05,0.31-0.23,0.57-0.5,0.73c-0.15,0.09-0.32,0.13-0.49,0.13
		c-0.13,0-0.26-0.03-0.39-0.08l-12.78-5.33l17.99-22.37c0.15,0.21,0.24,0.45,0.2,0.71L62.11,54.94z"/>
	<text transform="matrix(1 0 0 1 23.4766 72.628)" class="st3 st4 st5">DYNAMIQUE</text>
</g>
</svg>
