<?xml version="1.0" encoding="utf-8"?>
<!-- Generator: Adobe Illustrator 26.3.1, SVG Export Plug-In . SVG Version: 6.00 Build 0)  -->
<svg version="1.1" id="Calque_1" xmlns="http://www.w3.org/2000/svg" xmlns:xlink="http://www.w3.org/1999/xlink" x="0px" y="0px"
	 viewBox="0 0 102.05 102.05" style="enable-background:new 0 0 102.05 102.05;" xml:space="preserve">
<style type="text/css">
	.st0{fill:#933088;}
	.st1{fill:#FFFFFF;}
	.st2{fill:#EDECEC;}
	.st3{fill:#1E1E1C;}
	.st4{font-family:'TitilliumWeb-Light';}
	.st5{font-size:9.9781px;}
</style>
<circle class="st0" cx="51.13" cy="51.02" r="51.02"/>
<circle class="st1" cx="51.13" cy="51.02" r="42.59"/>
<ellipse class="st2" cx="51.13" cy="51.02" rx="41.21" ry="41.21"/>
<path class="st0" d="M61.23,29.29c-1.76,0-3.19,1.42-3.19,3.18v5.06c-0.56-0.51-1.3-0.82-2.12-0.82c-0.92,0-1.75,0.4-2.34,1.02
	c-0.45-1.21-1.62-2.09-2.98-2.09c-0.82,0-1.56,0.31-2.12,0.82v-8.23c0-1.75-1.43-3.18-3.19-3.18s-3.19,1.42-3.19,3.18v11.64
	c0,0.3,0.24,0.53,0.54,0.53c0.3,0,0.54-0.24,0.54-0.54V28.23c0-1.16,0.95-2.11,2.12-2.11s2.12,0.95,2.12,2.11V41.8l-6.52,1.39
	c-1.76,0.38-3.05,1.96-3.05,3.76v4.41c0,1.19,0.54,2.3,1.49,3.03l3.19,2.47c1.84,1.42,4.13,2.21,6.45,2.21h5.48
	c5.49-0.06,9.96-4.45,9.96-9.92V32.47C64.43,30.72,63,29.29,61.23,29.29z M53.79,39.87c0-1.16,0.95-2.11,2.12-2.11
	s2.12,0.95,2.12,2.11v4.76c0,1.16-0.95,2.11-2.12,2.11s-2.12-0.95-2.12-2.11V39.87z M48.47,38.81c0-1.16,0.95-2.11,2.12-2.11
	c1.17,0,2.12,0.95,2.12,2.11v4.46c-0.7-1.11-1.94-1.81-3.28-1.81c-0.26,0-0.53,0.03-0.79,0.08l-0.18,0.04L48.47,38.81L48.47,38.81z
	 M63.37,49.17c0,4.88-3.99,8.85-8.9,8.85h-5.48c-2.09,0-4.16-0.7-5.8-1.98l-3.19-2.47c-0.68-0.54-1.08-1.33-1.08-2.2v-4.41
	c0-1.3,0.87-2.45,2.22-2.72l7.77-1.65c0.19-0.04,0.39-0.06,0.58-0.06c1.39,0,2.81,1.1,2.81,2.79c0,1.26-0.88,2.44-2.22,2.71
	l-5.14,1.09c-0.25,0.06-0.42,0.28-0.42,0.52c0,0.33,0.28,0.53,0.54,0.53c0.04,0,0.07,0,0.11-0.01l5.13-1.1
	c0.37-0.08,2.33-0.55,2.91-2.8c0.56,0.87,1.56,1.55,2.72,1.55c1.76,0,3.19-1.42,3.19-3.18V32.47c0-1.16,0.95-2.11,2.12-2.11
	c1.17,0,2.12,0.95,2.12,2.11v16.7H63.37z"/>
<g>
	<text transform="matrix(1 0 0 1 19.424 72.7818)" class="st3 st4 st5">EXTRAVERTI(E)</text>
</g>
</svg>
