<?xml version="1.0" encoding="utf-8"?>
<!-- Generator: Adobe Illustrator 26.3.1, SVG Export Plug-In . SVG Version: 6.00 Build 0)  -->
<svg version="1.1" id="Calque_1" xmlns="http://www.w3.org/2000/svg" xmlns:xlink="http://www.w3.org/1999/xlink" x="0px" y="0px"
	 viewBox="0 0 102.05 102.05" style="enable-background:new 0 0 102.05 102.05;" xml:space="preserve">
<style type="text/css">
	.st0{fill:#933088;}
	.st1{fill:#FFFFFF;}
	.st2{fill:#EDECEC;}
	.st3{fill:#1E1E1C;}
	.st4{font-family:'TitilliumWeb-Light';}
	.st5{font-size:10.2367px;}
</style>
<circle class="st0" cx="51.02" cy="51.02" r="51.02"/>
<circle class="st1" cx="51.02" cy="51.02" r="42.59"/>
<ellipse transform="matrix(0.3163 -0.9487 0.9487 0.3163 -13.5197 83.2879)" class="st2" cx="51.02" cy="51.02" rx="41.21" ry="41.21"/>
<g>
	<path class="st0" d="M51.02,26.84c-20.3,0-23.53,9.65-23.53,17.12c0,8.66,6.44,14.26,14.38,14.26c2.23,0,4.18-0.53,5.4-3.01
		l1.63-3.31c0.51-0.99,1.31-1.5,2.12-1.52c0.81,0.03,1.61,0.53,2.12,1.52l1.63,3.31c1.22,2.47,3.17,3,5.4,3
		c7.94,0,14.38-5.6,14.38-14.26C74.55,36.49,71.33,26.84,51.02,26.84z M60.17,56.91c-2.27,0-3.41-0.62-4.23-2.28l-1.64-3.33
		c-0.69-1.35-1.9-2.18-3.33-2.23c-1.33,0.05-2.54,0.88-3.25,2.25l-1.63,3.31c-0.81,1.66-1.97,2.28-4.23,2.28
		c-7.57,0-13.07-5.45-13.07-12.95c0-10.64,7.2-15.81,22.22-15.81s22.22,5.17,22.22,15.81C73.25,51.46,67.75,56.91,60.17,56.91z
		 M40.57,37.3c-2.88,0-5.23,2.34-5.23,5.23c0,2.88,2.34,5.23,5.23,5.23c2.89,0,5.23-2.34,5.23-5.23S43.45,37.3,40.57,37.3z
		 M40.57,46.45c-2.17,0-3.92-1.76-3.92-3.92s1.76-3.92,3.92-3.92s3.92,1.76,3.92,3.92S42.73,46.45,40.57,46.45z M61.48,37.3
		c-2.89,0-5.23,2.34-5.23,5.23s2.34,5.23,5.23,5.23s5.23-2.34,5.23-5.23S64.37,37.3,61.48,37.3z M61.48,46.45
		c-2.16,0-3.92-1.76-3.92-3.92c0-2.16,1.76-3.92,3.92-3.92c2.16,0,3.92,1.76,3.92,3.92C65.4,44.69,63.65,46.45,61.48,46.45z"/>
	<text transform="matrix(1 0 0 1 18.8666 72.3636)" class="st3 st4 st5">INTROVERTI(E)</text>
</g>
</svg>
