<?xml version="1.0" encoding="utf-8"?>
<!-- Generator: Adobe Illustrator 26.3.1, SVG Export Plug-In . SVG Version: 6.00 Build 0)  -->
<svg version="1.1" id="Calque_1" xmlns="http://www.w3.org/2000/svg" xmlns:xlink="http://www.w3.org/1999/xlink" x="0px" y="0px"
	 viewBox="0 0 102.05 102.05" style="enable-background:new 0 0 102.05 102.05;" xml:space="preserve">
<style type="text/css">
	.st0{fill:#933088;}
	.st1{fill:#FFFFFF;}
	.st2{fill:#EDECEC;}
	.st3{fill:#1E1E1C;}
	.st4{font-family:'TitilliumWeb-Light';}
	.st5{font-size:10.2367px;}
</style>
<circle class="st0" cx="51.02" cy="51.02" r="51.02"/>
<circle class="st1" cx="51.02" cy="51.02" r="42.59"/>
<ellipse transform="matrix(0.3163 -0.9487 0.9487 0.3163 -13.5197 83.2879)" class="st2" cx="51.02" cy="51.02" rx="41.21" ry="41.21"/>
<g>
	<path class="st0" d="M67.35,31.28H56.53l-3.72-3.72c-0.47-0.41-1.02-0.64-1.6-0.64h-9.98c-1.8,0-3.26,1.46-3.26,3.26v17.41
		c0,1.8,1.46,3.26,3.26,3.26h26.12c1.8,0,3.26-1.46,3.26-3.26V34.55C70.61,32.75,69.15,31.28,67.35,31.28z M69.52,47.61
		c0,1.2-0.97,2.18-2.18,2.18H41.23c-1.2,0-2.18-0.97-2.18-2.18V30.2c0-1.2,0.97-2.18,2.18-2.18h9.53c0.58,0,1.13,0.23,1.54,0.64
		l3.72,3.72h11.33c1.2,0,2.18,0.97,2.18,2.18V47.61z M63.54,53.05c-0.3,0-0.54,0.24-0.54,0.54v0.54c0,1.2-0.97,2.18-2.18,2.18H34.7
		c-1.2,0-2.18-0.97-2.18-2.18V36.73c0-1.2,0.97-2.18,2.18-2.18h0.54c0.3,0,0.54-0.24,0.54-0.54c0-0.3-0.24-0.54-0.54-0.54H34.7
		c-1.8,0-3.26,1.46-3.26,3.26l0,17.41c0,1.8,1.46,3.26,3.26,3.26h26.05c1.8,0,3.2-1.46,3.2-3.26l0-0.54
		C64.08,53.29,63.84,53.05,63.54,53.05z"/>
	<text transform="matrix(1 0 0 1 22.3632 72.2698)" class="st3 st4 st5">ORGANISÉ(E)</text>
</g>
</svg>
