<?xml version="1.0" encoding="utf-8"?>
<!-- Generator: Adobe Illustrator 26.3.1, SVG Export Plug-In . SVG Version: 6.00 Build 0)  -->
<svg version="1.1" id="Calque_1" xmlns="http://www.w3.org/2000/svg" xmlns:xlink="http://www.w3.org/1999/xlink" x="0px" y="0px"
	 viewBox="0 0 102.05 102.05" style="enable-background:new 0 0 102.05 102.05;" xml:space="preserve">
<style type="text/css">
	.st0{fill:#933088;}
	.st1{fill:#FFFFFF;}
	.st2{fill:#EDECEC;}
	.st3{fill:#1E1E1C;}
	.st4{font-family:'TitilliumWeb-Light';}
	.st5{font-size:9.9781px;}
</style>
<circle class="st0" cx="51.02" cy="51.02" r="51.02"/>
<circle class="st1" cx="51.02" cy="51.02" r="42.59"/>
<ellipse transform="matrix(0.3163 -0.9487 0.9487 0.3163 -13.5197 83.2879)" class="st2" cx="51.02" cy="51.02" rx="41.21" ry="41.21"/>
<g>
	<path class="st0" d="M47.57,33.99c-1.09,0-1.97,1.11-1.97,2.41c0,1.3,0.88,2.46,1.97,2.46c1.09,0,1.92-1.11,1.92-2.46
		C49.49,35.04,48.66,33.99,47.57,33.99z M47.57,37.93c-0.54,0-0.93-0.68-0.93-1.48c0-0.75,0.45-1.42,0.93-1.42
		c0.54,0,0.93,0.62,0.93,1.42C48.56,37.26,48.11,37.93,47.57,37.93z M68.28,51.24h-3.4V27.09c0-1.36-1.11-2.46-2.46-2.46h-6.9
		c-0.27,0-0.44,0.22-0.44,0.49s0.22,0.49,0.44,0.49h6.9c0.81,0,1.48,0.66,1.48,1.48v24.65c0,0.27,0.22,0.49,0.44,0.49h3.89
		c0.33,0,0.55-0.22,0.55-0.49C68.77,51.47,68.55,51.24,68.28,51.24z M52.06,21.16c-0.57-0.44-1.29-0.58-1.98-0.41l-11.09,2.87
		c-1.04,0.27-1.77,1.23-1.77,2.33v25.28l-3.48,0c-0.27,0.02-0.47,0.24-0.46,0.51c0.01,0.27,0.23,0.48,0.44,0.48h18.68
		c0.27,0,0.44-0.22,0.44-0.49V23.09C53,22.32,52.66,21.62,52.06,21.16z M52.01,51.24h-13.8V25.96c0-0.65,0.43-1.22,1.03-1.38
		l11.04-2.88c0.39-0.11,0.8-0.01,1.13,0.23c0.35,0.27,0.55,0.69,0.55,1.14v28.16H52.01z"/>
	<text transform="matrix(1 0 0 1 27.9252 66.6173)"><tspan x="0" y="0" class="st3 st4 st5">OUVERT(E)</tspan><tspan x="3.56" y="11.97" class="st3 st4 st5">D’ESPRIT</tspan></text>
</g>
</svg>
