<?xml version="1.0" encoding="utf-8"?>
<!-- Generator: Adobe Illustrator 26.3.1, SVG Export Plug-In . SVG Version: 6.00 Build 0)  -->
<svg version="1.1" id="Calque_1" xmlns="http://www.w3.org/2000/svg" xmlns:xlink="http://www.w3.org/1999/xlink" x="0px" y="0px"
	 viewBox="0 0 102.05 102.05" style="enable-background:new 0 0 102.05 102.05;" xml:space="preserve">
<style type="text/css">
	.st0{fill:#933088;}
	.st1{fill:#FFFFFF;}
	.st2{fill:#EDECEC;}
	.st3{fill:#1E1E1C;}
	.st4{font-family:'TitilliumWeb-Light';}
	.st5{font-size:10.2367px;}
</style>
<circle class="st0" cx="351.82" cy="158.17" r="51.02"/>
<circle class="st1" cx="351.82" cy="158.17" r="42.59"/>
<ellipse transform="matrix(0.3163 -0.9487 0.9487 0.3163 90.4853 441.8921)" class="st2" cx="351.82" cy="158.17" rx="41.21" ry="41.21"/>
<g>
	<path class="st0" d="M346.84,141.55c0.09-0.17,0.21-0.28,0.45-0.28h9.05c0.19,0,0.36,0.11,0.45,0.28c0.08,0.17,0.06,0.38-0.05,0.53
		l-4.53,6.03c-0.09,0.13-0.25,0.2-0.4,0.2s-0.31-0.08-0.4-0.2l-4.53-6.03C346.78,141.93,346.76,141.72,346.84,141.55L346.84,141.55z
		 M348.3,142.28l3.52,4.7l3.52-4.7H348.3z M346.89,157.57c0.09-0.13,0.25-0.2,0.4-0.2h9.05c0.16,0,0.31,0.08,0.4,0.2l0.7,0.94
		c0.58,0.79,0.91,1.74,0.91,2.72v1.18c0,0.28-0.23,0.5-0.5,0.5h-12.07c-0.28,0-0.5-0.23-0.5-0.5v-1.18c0-0.97,0.32-1.93,0.91-2.72
		L346.89,157.57z M347.54,158.37l-0.55,0.74c-0.46,0.61-0.7,1.35-0.7,2.11v0.67h11.06v-0.67c0-0.76-0.25-1.5-0.7-2.11l-0.55-0.74
		H347.54z M339.75,134.24c0-0.28,0.23-0.5,0.5-0.5h23.13c0.28,0,0.5,0.23,0.5,0.5c0,0.28-0.23,0.5-0.5,0.5h-1.51v3.81
		c0,1.87-0.62,3.7-1.76,5.19l-4.64,6.08l4.64,6.08c1.14,1.49,1.76,3.32,1.76,5.19v3.82h1.51c0.28,0,0.5,0.23,0.5,0.5
		s-0.23,0.5-0.5,0.5h-23.13c-0.28,0-0.5-0.23-0.5-0.5s0.23-0.5,0.5-0.5h1.51v-3.82c0-1.87,0.62-3.7,1.76-5.19l4.65-6.08l-4.65-6.08
		c-1.14-1.49-1.76-3.32-1.76-5.19v-3.81h-1.51C339.98,134.74,339.75,134.52,339.75,134.24L339.75,134.24z M342.77,138.55
		c0,1.65,0.54,3.26,1.55,4.58l4.88,6.38c0.13,0.18,0.13,0.38,0,0.62l-4.88,6.38c-1.01,1.32-1.55,2.87-1.55,4.58v3.82h18.1v-3.82
		c0-1.71-0.55-3.26-1.55-4.58l-4.88-6.38c-0.13-0.24-0.13-0.43,0-0.62l4.88-6.38c1.01-1.32,1.55-2.93,1.55-4.58v-3.81h-18.1V138.55z
		"/>
	<text transform="matrix(1 0 0 1 327.7314 179.7573)" class="st3 st4 st5">PATIENT(E)</text>
</g>
<circle class="st0" cx="351.82" cy="158.17" r="51.02"/>
<circle class="st1" cx="351.82" cy="158.17" r="42.59"/>
<ellipse transform="matrix(0.3163 -0.9487 0.9487 0.3163 90.4853 441.8921)" class="st2" cx="351.82" cy="158.17" rx="41.21" ry="41.21"/>
<g>
	<path class="st0" d="M346.84,141.55c0.09-0.17,0.21-0.28,0.45-0.28h9.05c0.19,0,0.36,0.11,0.45,0.28c0.08,0.17,0.06,0.38-0.05,0.53
		l-4.53,6.03c-0.09,0.13-0.25,0.2-0.4,0.2s-0.31-0.08-0.4-0.2l-4.53-6.03C346.78,141.93,346.76,141.72,346.84,141.55L346.84,141.55z
		 M348.3,142.28l3.52,4.7l3.52-4.7H348.3z M346.89,157.57c0.09-0.13,0.25-0.2,0.4-0.2h9.05c0.16,0,0.31,0.08,0.4,0.2l0.7,0.94
		c0.58,0.79,0.91,1.74,0.91,2.72v1.18c0,0.28-0.23,0.5-0.5,0.5h-12.07c-0.28,0-0.5-0.23-0.5-0.5v-1.18c0-0.97,0.32-1.93,0.91-2.72
		L346.89,157.57z M347.54,158.37l-0.55,0.74c-0.46,0.61-0.7,1.35-0.7,2.11v0.67h11.06v-0.67c0-0.76-0.25-1.5-0.7-2.11l-0.55-0.74
		H347.54z M339.75,134.24c0-0.28,0.23-0.5,0.5-0.5h23.13c0.28,0,0.5,0.23,0.5,0.5c0,0.28-0.23,0.5-0.5,0.5h-1.51v3.81
		c0,1.87-0.62,3.7-1.76,5.19l-4.64,6.08l4.64,6.08c1.14,1.49,1.76,3.32,1.76,5.19v3.82h1.51c0.28,0,0.5,0.23,0.5,0.5
		s-0.23,0.5-0.5,0.5h-23.13c-0.28,0-0.5-0.23-0.5-0.5s0.23-0.5,0.5-0.5h1.51v-3.82c0-1.87,0.62-3.7,1.76-5.19l4.65-6.08l-4.65-6.08
		c-1.14-1.49-1.76-3.32-1.76-5.19v-3.81h-1.51C339.98,134.74,339.75,134.52,339.75,134.24L339.75,134.24z M342.77,138.55
		c0,1.65,0.54,3.26,1.55,4.58l4.88,6.38c0.13,0.18,0.13,0.38,0,0.62l-4.88,6.38c-1.01,1.32-1.55,2.87-1.55,4.58v3.82h18.1v-3.82
		c0-1.71-0.55-3.26-1.55-4.58l-4.88-6.38c-0.13-0.24-0.13-0.43,0-0.62l4.88-6.38c1.01-1.32,1.55-2.93,1.55-4.58v-3.81h-18.1V138.55z
		"/>
	<text transform="matrix(1 0 0 1 327.7314 179.7573)" class="st3 st4 st5">PATIENT(E)</text>
</g>
<circle class="st0" cx="51.02" cy="51.02" r="51.02"/>
<circle class="st1" cx="51.02" cy="51.02" r="42.59"/>
<ellipse transform="matrix(0.3163 -0.9487 0.9487 0.3163 -13.5197 83.2879)" class="st2" cx="51.02" cy="51.02" rx="41.21" ry="41.21"/>
<path class="st0" d="M46.05,34.41c0.09-0.17,0.21-0.28,0.45-0.28h9.05c0.19,0,0.36,0.11,0.45,0.28c0.08,0.17,0.06,0.38-0.05,0.53
	l-4.53,6.03c-0.09,0.13-0.25,0.2-0.4,0.2c-0.16,0-0.31-0.08-0.4-0.2l-4.53-6.03C45.98,34.79,45.96,34.58,46.05,34.41L46.05,34.41z
	 M47.5,35.14l3.52,4.7l3.52-4.7H47.5z M46.1,50.42c0.09-0.13,0.25-0.2,0.4-0.2h9.05c0.16,0,0.31,0.08,0.4,0.2l0.7,0.94
	c0.58,0.79,0.91,1.74,0.91,2.72v1.18c0,0.28-0.23,0.5-0.5,0.5H44.99c-0.28,0-0.5-0.23-0.5-0.5v-1.18c0-0.97,0.32-1.93,0.91-2.72
	L46.1,50.42z M46.75,51.23l-0.55,0.74c-0.46,0.61-0.7,1.35-0.7,2.11v0.67h11.06v-0.67c0-0.76-0.25-1.5-0.7-2.11l-0.55-0.74H46.75z
	 M38.96,27.09c0-0.28,0.23-0.5,0.5-0.5h23.13c0.28,0,0.5,0.23,0.5,0.5c0,0.28-0.23,0.5-0.5,0.5h-1.51v3.81
	c0,1.87-0.62,3.7-1.76,5.19l-4.64,6.08l4.64,6.08c1.14,1.49,1.76,3.32,1.76,5.19v3.82h1.51c0.28,0,0.5,0.23,0.5,0.5
	c0,0.28-0.23,0.5-0.5,0.5H39.46c-0.28,0-0.5-0.23-0.5-0.5c0-0.28,0.23-0.5,0.5-0.5h1.51v-3.82c0-1.87,0.62-3.7,1.76-5.19l4.65-6.08
	l-4.65-6.08c-1.14-1.49-1.76-3.32-1.76-5.19V27.6h-1.51C39.18,27.6,38.96,27.37,38.96,27.09L38.96,27.09z M41.97,31.41
	c0,1.65,0.54,3.26,1.55,4.58l4.88,6.38c0.13,0.18,0.13,0.38,0,0.62l-4.88,6.38c-1.01,1.32-1.55,2.87-1.55,4.58v3.82h18.1v-3.82
	c0-1.71-0.55-3.26-1.55-4.58l-4.88-6.38c-0.13-0.24-0.13-0.43,0-0.62l4.88-6.38c1.01-1.32,1.55-2.93,1.55-4.58V27.6h-18.1V31.41z"/>
<text transform="matrix(1 0 0 1 26.9366 72.6118)" class="st3 st4 st5">PATIENT(E)</text>
</svg>
