<?xml version="1.0" encoding="utf-8"?>
<!-- Generator: Adobe Illustrator 26.3.1, SVG Export Plug-In . SVG Version: 6.00 Build 0)  -->
<svg version="1.1" id="Calque_1" xmlns="http://www.w3.org/2000/svg" xmlns:xlink="http://www.w3.org/1999/xlink" x="0px" y="0px"
	 viewBox="0 0 102.05 102.05" style="enable-background:new 0 0 102.05 102.05;" xml:space="preserve">
<style type="text/css">
	.st0{fill:#933088;}
	.st1{fill:#FFFFFF;}
	.st2{fill:#EDECEC;}
	.st3{fill:#1E1E1C;}
	.st4{font-family:'TitilliumWeb-Light';}
	.st5{font-size:10.2367px;}
</style>
<circle class="st0" cx="51.02" cy="51.02" r="51.02"/>
<circle class="st1" cx="51.02" cy="51.02" r="42.59"/>
<ellipse transform="matrix(0.3163 -0.9487 0.9487 0.3163 -13.5197 83.2879)" class="st2" cx="51.02" cy="51.02" rx="41.21" ry="41.21"/>
<g>
	<path class="st0" d="M73.49,42.12c0,0.31-0.25,0.56-0.56,0.56H62.6l-4.34,8.68c-0.11,0.21-0.33,0.34-0.56,0.31
		c-0.23-0.02-0.42-0.18-0.49-0.41L51.03,29.8l-6.2,28.18c-0.06,0.25-0.27,0.43-0.53,0.44c-0.25,0-0.49-0.17-0.56-0.41l-4.44-15.32
		H29.12c-0.31,0-0.56-0.25-0.56-0.56c0-0.31,0.25-0.56,0.56-0.56h10.67c0.25,0,0.47,0.17,0.54,0.41l3.89,13.6l6.26-28.17
		c0.06-0.25,0.27-0.43,0.53-0.44c0.25,0,0.49,0.17,0.56,0.41l6.34,22.2l3.85-7.7c0.09-0.19,0.23-0.31,0.5-0.31h10.67
		C73.24,41.56,73.49,41.81,73.49,42.12z"/>
	<text transform="matrix(1 0 0 1 20.6406 72.2465)" class="st3 st4 st5">PROACTIF(VE)</text>
</g>
</svg>
