<?xml version="1.0" encoding="utf-8"?>
<!-- Generator: Adobe Illustrator 26.3.1, SVG Export Plug-In . SVG Version: 6.00 Build 0)  -->
<svg version="1.1" id="Calque_1" xmlns="http://www.w3.org/2000/svg" xmlns:xlink="http://www.w3.org/1999/xlink" x="0px" y="0px"
	 viewBox="0 0 102.05 102.05" style="enable-background:new 0 0 102.05 102.05;" xml:space="preserve">
<style type="text/css">
	.st0{fill:#933088;}
	.st1{fill:#FFFFFF;}
	.st2{fill:#EDECEC;}
	.st3{fill:#1E1E1C;}
	.st4{font-family:'TitilliumWeb-Light';}
	.st5{font-size:10.2367px;}
</style>
<circle class="st0" cx="51.02" cy="51.02" r="51.02"/>
<circle class="st1" cx="51.02" cy="51.02" r="42.59"/>
<ellipse transform="matrix(0.3163 -0.9487 0.9487 0.3163 -13.5197 83.2879)" class="st2" cx="51.02" cy="51.02" rx="41.21" ry="41.21"/>
<g>
	<path class="st0" d="M64.28,29.41c-1.81-1.8-4.11-2.82-6.62-2.82c-2.93,0-6.13,1.37-9.2,4.43l-5.38,5.37
		c-3.8,3.79-4.42,9.46-3.99,13.25c0.02,0.17,0.05,0.32,0.07,0.48c0.13,0.95,0.53,1.82,1.13,2.55l-5.2,5.2c-0.2,0.2-0.2,0.51,0,0.71
		c0.1,0.1,0.23,0.15,0.36,0.15c0.13,0,0.26-0.05,0.36-0.15L41,53.4c0.73,0.61,1.61,1.01,2.56,1.14c0.15,0.02,0.31,0.04,0.47,0.06
		c0.65,0.07,1.36,0.12,2.11,0.12c3.58,0,8-0.97,11.14-4.11l5.38-5.38C68.35,39.54,68.2,33.33,64.28,29.41z M40.16,50
		c-0.02-0.15-0.13-1.1-0.13-1.1c-0.27-3.73,0.57-8.54,3.77-11.78l5.38-5.38c2.71-2.71,5.65-4.14,8.5-4.14c2.21,0,4.25,0.87,5.9,2.51
		c2.88,2.89,3.26,6.75,1.27,10.55H53.74l3.16-3.16c0.2-0.2,0.2-0.51,0-0.71c-0.2-0.2-0.51-0.2-0.71,0L41.03,51.95
		C40.59,51.37,40.26,50.73,40.16,50z M56.58,49.9c-3.31,3.32-7.95,3.81-10.43,3.81c-0.55,0-1.1-0.02-1.63-0.07
		c0,0-0.67-0.08-0.81-0.1c-0.73-0.1-1.38-0.43-1.96-0.89l4.97-4.97h12.07L56.58,49.9z M61.96,44.52l-2.17,2.17H47.72l5.02-5.02
		h11.48C63.61,42.63,62.88,43.59,61.96,44.52z"/>
	<text transform="matrix(1 0 0 1 29.4762 72.6108)" class="st3 st4 st5">SENSIBLE</text>
</g>
</svg>
