<?xml version="1.0" encoding="utf-8"?>
<!-- Generator: Adobe Illustrator 26.3.1, SVG Export Plug-In . SVG Version: 6.00 Build 0)  -->
<svg version="1.1" id="Calque_1" xmlns="http://www.w3.org/2000/svg" xmlns:xlink="http://www.w3.org/1999/xlink" x="0px" y="0px"
	 viewBox="0 0 102.05 102.05" style="enable-background:new 0 0 102.05 102.05;" xml:space="preserve">
<style type="text/css">
	.st0{fill:#933088;}
	.st1{fill:#FFFFFF;}
	.st2{fill:#EDECEC;}
	.st3{fill:#1E1E1C;}
	.st4{font-family:'TitilliumWeb-Light';}
	.st5{font-size:10.2367px;}
</style>
<circle class="st0" cx="51.02" cy="51.02" r="51.02"/>
<circle class="st1" cx="51.02" cy="51.02" r="42.59"/>
<ellipse transform="matrix(0.3163 -0.9487 0.9487 0.3163 -13.5197 83.2879)" class="st2" cx="51.02" cy="51.02" rx="41.21" ry="41.21"/>
<g>
	<path class="st0" d="M36.3,52.85c-1.62-1.62-1.62-4.26,0-5.88l19.05-19.05c1.62-1.62,4.26-1.62,5.88,0l4.51,4.51
		c1.62,1.62,1.62,4.26,0,5.88L46.69,57.35c-1.62,1.62-4.26,1.62-5.88,0L36.3,52.85z M37.04,52.11l4.51,4.51
		c1.21,1.22,3.19,1.22,4.4,0l19.05-19.05c1.22-1.21,1.22-3.19,0-4.4l-4.51-4.51c-1.21-1.22-3.19-1.22-4.4,0l-2.99,2.93l3.48,3.42
		c0.2,0.21,0.2,0.53,0,0.74c-0.21,0.2-0.53,0.2-0.74,0l-3.41-3.42l-3.48,3.42l3.48,3.41c0.2,0.21,0.2,0.53,0,0.74
		c-0.21,0.2-0.53,0.2-0.74,0l-3.41-3.48l-3.48,3.48l3.48,3.41c0.2,0.21,0.2,0.53,0,0.74c-0.21,0.2-0.53,0.2-0.74,0l-3.41-3.48
		l-3.42,3.48l3.42,3.41c0.2,0.21,0.2,0.53,0,0.74c-0.21,0.2-0.53,0.2-0.74,0l-3.42-3.48l-2.93,2.99
		C35.82,48.92,35.82,50.89,37.04,52.11L37.04,52.11z"/>
	<text transform="matrix(1 0 0 1 23.9586 72.5029)" class="st3 st4 st5">SÉRIEUX(SE)</text>
</g>
</svg>
