<?xml version="1.0" encoding="utf-8"?>
<!-- Generator: Adobe Illustrator 26.3.1, SVG Export Plug-In . SVG Version: 6.00 Build 0)  -->
<svg version="1.1" id="Calque_1" xmlns="http://www.w3.org/2000/svg" xmlns:xlink="http://www.w3.org/1999/xlink" x="0px" y="0px"
	 viewBox="0 0 102.05 102.05" style="enable-background:new 0 0 102.05 102.05;" xml:space="preserve">
<style type="text/css">
	.st0{fill:#933088;}
	.st1{fill:#FFFFFF;}
	.st2{fill:#EDECEC;}
	.st3{fill:#1E1E1C;}
	.st4{font-family:'TitilliumWeb-Light';}
	.st5{font-size:10.2367px;}
</style>
<circle class="st0" cx="51.02" cy="51.02" r="51.02"/>
<circle class="st1" cx="51.02" cy="51.02" r="42.59"/>
<ellipse transform="matrix(0.3163 -0.9487 0.9487 0.3163 -13.5197 83.2879)" class="st2" cx="51.02" cy="51.02" rx="41.21" ry="41.21"/>
<g>
	<path class="st0" d="M52.53,39.01c-0.26-0.21-0.63-0.17-0.84,0.09c-0.21,0.25-0.17,0.63,0.09,0.84l11.15,9.05
		c0.76,0.62,0.88,1.75,0.26,2.51l-0.72,0.88c-0.62,0.76-1.75,0.88-2.51,0.27l-0.87-0.73l-2.72,3.36c-0.37,0.45-0.89,0.73-1.48,0.79
		c-0.58,0.05-1.15-0.11-1.58-0.46l-1.34-1.16l-0.48-0.3l-0.39,0.39c-0.71,0.87-1.7,1.41-2.81,1.52c-1.11,0.12-2.2-0.21-3.05-0.9
		l-6.93-6.27H27.68c-0.33,0-0.6,0.27-0.6,0.6c0,0.33,0.27,0.6,0.6,0.6h10.1l6.61,5.98c1.04,0.79,2.22,1.21,3.38,1.21
		c0.19,0,0.37-0.01,0.56-0.03c1.24-0.13,2.37-0.67,3.22-1.52l0.91,0.79c0.7,0.57,1.57,0.82,2.48,0.74c0.9-0.09,1.71-0.53,2.28-1.23
		l1.96-2.42c1.29,0.98,3.13,0.77,4.14-0.49l0.72-0.88c1.03-1.28,0.83-3.16-0.44-4.2L52.53,39.01z M27.68,33.32l9.23-0.01l0.18-0.18
		c3.03-2.9,6.98-4.53,11.17-4.53c0.33,0,0.6-0.27,0.6-0.6c0-0.33-0.33-0.6-0.6-0.6c-4.43,0-8.6,1.69-11.79,4.71h-8.79
		c-0.33,0-0.6,0.27-0.6,0.6C27.08,33.05,27.42,33.32,27.68,33.32z M74.9,32.72c0-0.33-0.27-0.6-0.6-0.6h-8.72
		c-3.17-3.08-7.35-4.77-11.79-4.77l-0.58,0.06c-0.74,0-1.45,0.28-2.02,0.78l-7.36,6.74l-0.07,0.08c-1.39,1.37-1.45,3.53-0.13,4.96
		c0.57,0.62,1.6,1.16,2.71,1.16c0.75,0,1.53-0.24,2.25-0.85l6.08-5.54c0.24-0.22,0.26-0.6,0.04-0.84c-0.22-0.24-0.6-0.26-0.84-0.04
		l-5.9,5.39l-0.3,0.12v0.13c-1.27,0.93-2.68,0.19-3.16-0.33c-0.89-0.96-0.83-2.43,0.13-3.33L52,29.08c0.34-0.31,0.77-0.48,1.22-0.48
		h0.64c4.2,0,8.15,1.63,11.12,4.6l0.18,0.18h9.21C74.69,33.32,74.9,33.12,74.9,32.72z M74.3,48.91h-7.82c-0.33,0-0.6,0.27-0.6,0.6
		c0,0.33,0.27,0.6,0.6,0.6h7.89c0.33,0,0.6-0.27,0.6-0.6C74.96,49.17,74.69,48.91,74.3,48.91z"/>
	<text transform="matrix(1 0 0 1 29.3788 71.8469)" class="st3 st4 st5">SOCIABLE</text>
</g>
</svg>
